<svg width="390" height="105" viewBox="0 0 390 105" fill="none" xmlns="http://www.w3.org/2000/svg">
<path d="M130.46 95.6215C134.42 95.1197 137.167 91.6072 136.656 87.7183C136.145 83.8921 132.504 81.195 128.608 81.6968C124.648 82.1986 121.902 85.7111 122.413 89.6C122.924 93.4889 126.5 96.186 130.46 95.6215Z" fill="white"/>
<path d="M135.187 9.12545C131.546 10.1918 129.502 12.5753 129.183 16.2133L129.119 16.966C128.864 19.4122 129.119 35.3441 129.886 64.8244C129.694 69.4032 129.886 71.724 130.397 71.7867L132.377 71.9749C139.53 38.6057 143.171 20.9176 143.362 18.9731L143.171 14.9588C142.085 11.2581 140.105 9.2509 137.103 9L135.187 9.12545Z" fill="white"/>
<path d="M29.86 53.9724L26.6026 81.2573C26.922 81.3828 31.3291 81.8846 39.8878 82.8254L43.2091 55.6659C43.7839 54.6623 50.9375 44.5638 64.7337 25.3075V25.182L48.8297 23.3003L46.0194 28.1301C40.6542 37.0996 37.9717 41.8666 37.9717 42.4939H37.9078L37.7162 40.9258C37.4607 39.5458 35.4807 33.0226 31.9039 21.4813L16.1277 19.5996L16 19.7251L29.86 53.9724Z" fill="white"/>
<path d="M57.1953 18.0321V83.7042L57.4508 83.9551H85.8734L86.1289 83.7042V70.8458L85.8734 70.6576H73.9934V56.1684H84.085L84.2767 55.9175V43.8117L84.085 43.5608H73.9934V31.1415H84.7876L85.0431 30.8906V18.0321L84.7876 17.7812H57.4508L57.1953 18.0321Z" fill="white"/>
<path d="M91.8157 21.7957C87.6003 24.4928 85.6202 27.7545 85.748 31.5807L85.8119 32.9606C86.8338 40.4247 87.4725 44.1882 87.8557 44.1882C87.9196 46.3835 91.0493 49.6452 97.117 53.9731C103.696 59.242 107.081 62.19 107.4 62.8799C108.039 62.8799 108.805 66.267 109.636 73.1667V73.7939C109.7 74.6093 109.189 75.1111 108.103 75.362L107.209 75.4248C106.889 75.4248 106.634 75.2993 106.314 75.0484C105.804 75.0484 104.845 70.1559 103.44 60.3083V60.1828C102.418 60.2455 98.139 60.8728 90.6022 62.19C91.9435 71.4731 92.9654 76.742 93.7319 78.0592C95.9035 83.1398 100.055 85.5233 106.187 85.3351C108.231 85.2724 110.466 84.8961 112.829 84.3316C119.664 82.0108 122.921 78.1219 122.729 72.5394C122.665 71.4104 122.091 67.4588 120.941 60.8101C120.175 57.7366 119.216 55.6667 118.131 54.6004C117.045 53.4713 113.532 50.6488 107.592 46.1326C103.504 43.0592 101.205 41.1774 100.758 40.4247C100.247 40.4247 99.4803 37.2885 98.5861 30.8907C98.5222 29.448 99.2887 28.6954 100.949 28.6326C101.652 28.6326 102.163 29.009 102.546 29.8244L104.845 42.4319C113.085 41.1774 117.364 40.4875 117.556 40.2366C116.215 31.7061 115.256 26.9391 114.554 25.8728C112.191 21.2312 108.103 19.0359 102.418 19.224L101.524 19.2868C98.0751 19.4122 94.8177 20.2903 91.8157 21.7957Z" fill="white"/>
<path d="M171.205 27.3147C175.74 37.6641 180.913 48.5781 185.512 58.8649H185.64C187.237 52.2161 191.005 36.2842 191.388 32.5835C191.58 30.5763 190.941 29.7609 189.153 29.6355L186.023 29.4473L186.47 27.3147H200.969L200.522 29.4473L198.414 29.6355C196.881 29.7609 195.859 30.5136 195.221 32.5835C193.624 37.2878 188.131 61.6874 186.534 68.838H180.275C175.357 57.4222 170.439 46.0692 165.329 34.5907H165.137C163.221 42.6821 159.261 61.1229 159.006 63.5064C158.814 65.4509 159.517 66.3917 161.241 66.4545L164.307 66.6426L163.924 68.7753H148.914L149.361 66.6426L151.852 66.5172C153.321 66.329 154.343 65.5763 155.046 63.5064C156.515 58.8649 160.347 42.3057 162.391 32.8971C162.838 30.8272 162.71 29.8236 161.113 29.6982L157.409 29.3846L157.984 27.252H171.205V27.3147Z" fill="white"/>
<path d="M205.06 27.3145H236.74L234.313 38.1657H232.141C231.694 30.3879 230.991 29.8861 224.923 29.8861H220.708C218.792 29.8861 218.409 30.137 218.025 31.7679L214.832 45.6299H220.963C225.115 45.6299 226.073 44.6263 227.925 40.361H230.161L227.223 53.8467H225.051C225.243 50.0205 224.668 48.5152 220.452 48.5152H214.321L211.127 62.4399C210.297 66.0152 211.958 66.2661 218.025 66.2661C225.882 66.2661 227.989 63.1299 231.63 56.8575H233.802L229.714 68.9005H195.734L196.181 66.7679L199.439 66.517C201.1 66.3915 201.547 65.3879 202.121 63.2553L209.02 33.0223C209.531 30.8897 209.467 29.9489 207.87 29.8234L204.612 29.5098L205.06 27.3145Z" fill="white"/>
<path d="M258.707 27.3147L258.324 29.4473L254.811 29.7609C253.661 29.8864 253.533 30.5136 253.533 31.7681C253.853 39.1695 254.364 52.9061 254.619 59.4921H254.939C258.26 52.8434 265.541 36.2215 269.054 28.1928H275.313C275.824 36.2842 277.23 50.9616 277.996 59.6175H278.315C282.85 50.7735 287.257 40.8631 290.898 32.2699C291.537 30.7018 291.409 29.8864 290.195 29.7609L286.491 29.3846L286.874 27.252H300.862L300.415 29.3846C297.03 29.7609 296.327 29.8864 294.539 33.2735C289.365 43.3093 282.403 57.7358 277.102 68.7753H270.332C269.948 60.5584 268.543 45.2537 267.841 38.5423H267.585C264.391 44.8774 257.557 59.9939 253.725 68.7753H246.891C246.252 57.234 245.55 43.3093 244.655 32.0817C244.528 30.3254 244.08 29.6982 240.695 29.3846L241.142 27.252L258.707 27.3147Z" fill="white"/>
<path d="M322.26 39.3593C322.26 32.5224 319.259 28.9471 314.404 28.9471C309.742 28.9471 307.634 32.0833 307.634 35.5332C307.634 39.7357 310.444 41.6174 314.979 44.44C321.494 48.4543 324.304 50.9005 324.304 56.3575C324.304 63.6335 319.514 69.8432 308.337 69.9059C303.61 69.9686 297.542 68.4633 294.477 64.8253L296.009 54.4758H298.309C298.756 63.0063 303.482 67.3342 308.72 67.3342C313.638 67.3342 316.065 64.2608 316.065 60.2464C316.065 56.1694 313.319 53.9113 309.55 51.4651C303.163 47.4507 299.842 44.5654 299.842 38.9203C299.842 33.7142 302.908 26.25 314.915 26.25C318.684 26.25 323.666 27.5045 326.795 29.9507L324.751 39.3593H322.26Z" fill="white"/>
<path d="M150.127 78.9376L148.211 76.1777H148.914L150.446 78.3731L151.979 76.1777H152.682L150.766 78.9376V80.9448H150.191V78.9376H150.127Z" fill="white"/>
<path d="M153.828 76.1777H157.022V76.6795H154.467V78.2476H157.022V78.7494H154.467V80.3802H157.022V80.882H153.828V76.1777Z" fill="white"/>
<path d="M158.555 79.816C158.874 80.1923 159.385 80.5059 160.088 80.5059C160.982 80.5059 161.238 80.0668 161.238 79.6905C161.238 79.126 160.663 78.9378 160.024 78.8124C159.258 78.6242 158.363 78.3733 158.363 77.4324C158.363 76.617 159.066 76.1152 160.024 76.1152C160.791 76.1152 161.365 76.3661 161.749 76.8052L161.365 77.2443C160.982 76.8679 160.471 76.6798 159.96 76.6798C159.385 76.6798 158.938 76.9934 158.938 77.4324C158.938 77.9342 159.513 78.0597 160.088 78.2479C160.854 78.436 161.813 78.6869 161.813 79.6905C161.813 80.3805 161.302 81.0704 160.024 81.0704C159.194 81.0704 158.555 80.7568 158.172 80.3177L158.555 79.816Z" fill="white"/>
<path d="M163.602 80.2548C163.794 80.2548 163.985 80.443 163.985 80.6311C163.985 80.8193 163.794 81.0075 163.602 81.0075C163.41 81.0075 163.219 80.8193 163.219 80.6311C163.219 80.3802 163.346 80.2548 163.602 80.2548ZM163.219 76.1777H163.921L163.794 79.6276H163.346L163.219 76.1777Z" fill="white"/>
<path d="M169.675 76.9931L168.014 80.9448H167.759L166.098 76.9931V80.9448H165.523V76.1777H166.418L167.951 79.8157L169.483 76.1777H170.378V80.9448H169.803V76.9931H169.675Z" fill="white"/>
<path d="M174.208 76.1152C175.614 76.1152 176.635 77.1815 176.635 78.5615C176.635 79.9414 175.677 81.0077 174.208 81.0077C172.739 81.0077 171.781 79.9414 171.781 78.5615C171.781 77.1815 172.739 76.1152 174.208 76.1152ZM174.208 76.617C173.123 76.617 172.42 77.4324 172.42 78.5615C172.42 79.6905 173.123 80.5059 174.208 80.5059C175.294 80.5059 175.997 79.6905 175.997 78.5615C175.997 77.4324 175.294 76.617 174.208 76.617Z" fill="white"/>
<path d="M178.676 77.1186V80.9448H178.102V76.1777H178.74L181.551 79.9412V76.1777H182.125V80.9448H181.551L178.676 77.1186Z" fill="white"/>
<path d="M185.002 76.6795H183.469V76.1777H187.173V76.6795H185.576V80.9448H185.002V76.6795Z" fill="white"/>
<path d="M191.963 78.7494H189.153V80.9448H188.578V76.1777H189.153V78.2476H191.963V76.1777H192.538V80.9448H191.963V78.7494Z" fill="white"/>
<path d="M194.197 76.1777H194.772V80.443H197.007V80.9448H194.133V76.1777H194.197Z" fill="white"/>
<path d="M198.986 78.9376L197.07 76.1777H197.773L199.306 78.3731L200.839 76.1777H201.541L199.625 78.9376V80.9448H198.986V78.9376Z" fill="white"/>
<path d="M202.242 79H206.138V79.5018H202.242V79Z" fill="white"/>
<path d="M209.141 76.1777H210.801C212.334 76.1777 213.292 77.244 213.292 78.5612C213.292 79.9412 212.334 80.9448 210.801 80.9448H209.141V76.1777ZM210.801 80.443C211.951 80.443 212.654 79.6276 212.654 78.5612C212.654 77.5577 212.015 76.6795 210.801 76.6795H209.715V80.3802H210.801V80.443Z" fill="white"/>
<path d="M215.913 77.4316C216.999 77.4316 217.574 78.2471 217.574 79.3134V79.4388H214.7C214.764 80.0661 215.211 80.6306 215.977 80.6306C216.36 80.6306 216.808 80.5051 217.063 80.1915L217.319 80.5678C216.999 80.8815 216.488 81.0696 215.913 81.0696C214.891 81.0696 214.125 80.3169 214.125 79.2506C214.189 78.1843 214.891 77.4316 215.913 77.4316ZM214.764 78.9997H217.063C217.063 78.4979 216.68 77.8707 215.913 77.8707C215.147 77.8707 214.764 78.4979 214.764 78.9997Z" fill="white"/>
<path d="M218.664 77.4944H219.239V78.0589C219.494 77.6825 219.941 77.4316 220.389 77.4316V77.9962C220.325 77.9962 220.261 77.9962 220.197 77.9962C219.878 77.9962 219.431 78.2471 219.239 78.5607V81.0069H218.664V77.4944Z" fill="white"/>
<path d="M223.965 77.1186V80.9448H223.391V76.1777H224.029L226.84 79.9412V76.1777H227.414V80.9448H226.84L223.965 77.1186Z" fill="white"/>
<path d="M230.154 77.4316C231.24 77.4316 231.815 78.2471 231.815 79.3134V79.4388H229.005C229.068 80.0661 229.515 80.6306 230.282 80.6306C230.665 80.6306 231.112 80.5051 231.368 80.1915L231.623 80.5678C231.304 80.8815 230.793 81.0696 230.218 81.0696C229.196 81.0696 228.43 80.3169 228.43 79.2506C228.43 78.1843 229.196 77.4316 230.154 77.4316ZM229.005 78.9997H231.304C231.304 78.4979 230.921 77.8707 230.154 77.8707C229.388 77.8707 229.068 78.4979 229.005 78.9997Z" fill="white"/>
<path d="M235.072 78.1861L234.178 80.9459H233.603L232.453 77.4961H233.028L233.858 80.256L234.752 77.4961H235.2L236.094 80.256L236.924 77.4961H237.499L236.349 80.9459H235.774L235.072 78.1861Z" fill="white"/>
<path d="M238.459 80.1288C238.714 80.3797 239.161 80.6306 239.608 80.6306C240.119 80.6306 240.439 80.3797 240.439 80.0661C240.439 79.6897 239.992 79.5643 239.544 79.4388C238.97 79.3134 238.267 79.1252 238.267 78.4352C238.267 77.8707 238.714 77.4316 239.608 77.4316C240.183 77.4316 240.63 77.6825 240.886 77.9334L240.63 78.3098C240.439 78.0589 240.055 77.8707 239.608 77.8707C239.097 77.8707 238.842 78.0589 238.842 78.3725C238.842 78.6861 239.225 78.8116 239.672 78.937C240.311 79.0625 241.013 79.2506 241.013 80.0033C241.013 80.5678 240.566 81.0696 239.608 81.0696C239.033 81.0696 238.522 80.8815 238.203 80.5051L238.459 80.1288Z" fill="white"/>
<path d="M242.039 76.1777H242.614V80.9448H242.039V76.1777Z" fill="white"/>
<path d="M245.359 77.4316C246.445 77.4316 247.019 78.2471 247.019 79.3134V79.4388H244.145C244.209 80.0661 244.656 80.6306 245.423 80.6306C245.806 80.6306 246.253 80.5051 246.508 80.1915L246.764 80.5678C246.445 80.8815 245.934 81.0696 245.359 81.0696C244.337 81.0696 243.57 80.3169 243.57 79.2506C243.634 78.1843 244.337 77.4316 245.359 77.4316ZM244.209 78.9997H246.508C246.508 78.4979 246.125 77.8707 245.359 77.8707C244.592 77.8707 244.273 78.4979 244.209 78.9997Z" fill="white"/>
<path d="M248.231 80.1929V77.9348H247.656V77.433H248.231V76.4922H248.806V77.433H249.509V77.9348H248.806V80.0675C248.806 80.3184 248.934 80.5065 249.189 80.5065C249.317 80.5065 249.509 80.4438 249.572 80.3811L249.764 80.7574C249.636 80.8829 249.445 81.0083 249.125 81.0083C248.487 81.0083 248.231 80.7574 248.231 80.1929Z" fill="white"/>
<path d="M250.536 80.1929V77.9348H249.961V77.433H250.536V76.4922H251.111V77.433H251.813V77.9348H251.111V80.0675C251.111 80.3184 251.238 80.5065 251.494 80.5065C251.622 80.5065 251.813 80.4438 251.877 80.3811L252.069 80.7574C251.941 80.8829 251.749 81.0083 251.43 81.0083C250.791 81.0083 250.536 80.7574 250.536 80.1929Z" fill="white"/>
<path d="M254.304 77.4316C255.39 77.4316 255.965 78.2471 255.965 79.3134V79.4388H253.09C253.154 80.0661 253.601 80.6306 254.368 80.6306C254.751 80.6306 255.198 80.5051 255.454 80.1915L255.709 80.5678C255.39 80.8815 254.879 81.0696 254.304 81.0696C253.282 81.0696 252.516 80.3169 252.516 79.2506C252.579 78.1843 253.282 77.4316 254.304 77.4316ZM253.154 78.9997H255.454C255.454 78.4979 255.07 77.8707 254.304 77.8707C253.538 77.8707 253.154 78.4979 253.154 78.9997Z" fill="white"/>
<path d="M257.047 77.4944H257.622V78.0589C257.877 77.6825 258.324 77.4316 258.771 77.4316V77.9962C258.708 77.9962 258.644 77.9962 258.58 77.9962C258.26 77.9962 257.813 78.2471 257.622 78.5607V81.0069H257.047V77.4944Z" fill="white"/>
<path d="M261.195 77.4961H261.77L262.92 80.3187L264.07 77.4961H264.644L263.175 80.9459H262.6L261.195 77.4961Z" fill="white"/>
<path d="M265.227 79.1881C265.227 78.1846 265.865 77.3691 266.951 77.3691C268.037 77.3691 268.676 78.1846 268.676 79.1881C268.676 80.1917 268.037 81.0071 266.951 81.0071C265.865 81.0071 265.227 80.1917 265.227 79.1881ZM268.165 79.1881C268.165 78.4982 267.718 77.8709 267.015 77.8709C266.312 77.8709 265.865 78.4982 265.865 79.1881C265.865 79.8781 266.312 80.5053 267.015 80.5053C267.718 80.5053 268.165 79.9408 268.165 79.1881Z" fill="white"/>
<path d="M272.184 78.6861C272.184 78.0589 271.864 77.8707 271.417 77.8707C270.97 77.8707 270.587 78.1216 270.395 78.4352V80.9442H269.82V77.4944H270.395V77.9962C270.651 77.6825 271.098 77.4316 271.673 77.4316C272.439 77.4316 272.822 77.808 272.822 78.5607V81.0069H272.247V78.6861H272.184Z" fill="white"/>
<path d="M276.21 81.8868C276.466 81.8868 276.594 81.8241 276.721 81.5104L276.977 81.0086L275.508 77.4961H276.083L277.232 80.3187L278.382 77.4961H278.957L277.168 81.6359C276.977 82.1377 276.594 82.3258 276.147 82.3258C276.019 82.3258 275.827 82.3258 275.763 82.2631L275.827 81.7613C276.019 81.8241 276.147 81.8868 276.21 81.8868Z" fill="white"/>
<path d="M281.32 77.4316C282.405 77.4316 282.98 78.2471 282.98 79.3134V79.4388H280.106C280.17 80.0661 280.617 80.6306 281.384 80.6306C281.767 80.6306 282.214 80.5051 282.469 80.1915L282.725 80.5678C282.405 80.8815 281.894 81.0696 281.32 81.0696C280.298 81.0696 279.531 80.3169 279.531 79.2506C279.595 78.1843 280.298 77.4316 281.32 77.4316ZM280.17 78.9997H282.469C282.469 78.4979 282.086 77.8707 281.32 77.8707C280.553 77.8707 280.17 78.4979 280.17 78.9997Z" fill="white"/>
<path d="M284.068 80.1288C284.323 80.3797 284.771 80.6306 285.218 80.6306C285.729 80.6306 286.048 80.3797 286.048 80.0661C286.048 79.6897 285.601 79.5643 285.154 79.4388C284.579 79.3134 283.876 79.1252 283.876 78.4352C283.876 77.8707 284.323 77.4316 285.218 77.4316C285.793 77.4316 286.24 77.6825 286.495 77.9334L286.24 78.3098C286.048 78.0589 285.665 77.8707 285.218 77.8707C284.707 77.8707 284.451 78.0589 284.451 78.3725C284.451 78.6861 284.834 78.8116 285.282 78.937C285.92 79.0625 286.623 79.2506 286.623 80.0033C286.623 80.5678 286.176 81.0696 285.218 81.0696C284.643 81.0696 284.132 80.8815 283.812 80.5051L284.068 80.1288Z" fill="white"/>
<path d="M289.752 78.1861L288.857 80.9459H288.282L287.133 77.4961H287.708L288.538 80.256L289.432 77.4961H289.879L290.773 80.256L291.604 77.4961H292.179L291.029 80.9459H290.454L289.752 78.1861Z" fill="white"/>
<path d="M294.734 77.4316C295.82 77.4316 296.394 78.2471 296.394 79.3134V79.4388H293.52C293.584 80.0661 294.031 80.6306 294.798 80.6306C295.181 80.6306 295.628 80.5051 295.883 80.1915L296.139 80.5678C295.82 80.8815 295.309 81.0696 294.734 81.0696C293.712 81.0696 292.945 80.3169 292.945 79.2506C292.945 78.1843 293.712 77.4316 294.734 77.4316ZM293.52 78.9997H295.82C295.82 78.4979 295.436 77.8707 294.67 77.8707C293.967 77.8707 293.584 78.4979 293.52 78.9997Z" fill="white"/>
<path d="M299.01 77.4316C299.649 77.4316 300.032 77.6825 300.287 78.0589L299.904 78.3098C299.649 77.9962 299.393 77.8707 299.01 77.8707C298.243 77.8707 297.796 78.4352 297.796 79.1879C297.796 79.9406 298.243 80.5051 299.01 80.5051C299.393 80.5051 299.649 80.3797 299.904 80.0661L300.287 80.3797C300.032 80.6933 299.649 81.0069 299.01 81.0069C297.988 81.0069 297.285 80.1915 297.285 79.1879C297.221 78.1843 297.924 77.4316 299.01 77.4316Z" fill="white"/>
<path d="M303.418 80.5696C303.099 80.8832 302.715 81.0714 302.268 81.0714C301.693 81.0714 301.055 80.695 301.055 79.9423C301.055 79.1896 301.693 78.8133 302.268 78.8133C302.779 78.8133 303.162 78.9387 303.418 79.3151V78.6879C303.418 78.2488 303.035 77.9352 302.524 77.9352C302.077 77.9352 301.757 78.0606 301.438 78.437L301.182 78.0606C301.566 77.6843 302.013 77.4961 302.588 77.4961C303.354 77.4961 303.929 77.8097 303.929 78.6879V81.0714H303.354V80.5696H303.418ZM303.418 79.566C303.226 79.2524 302.843 79.1269 302.46 79.1269C301.949 79.1269 301.566 79.4405 301.566 79.8796C301.566 80.3187 301.949 80.6323 302.46 80.6323C302.843 80.6323 303.226 80.5068 303.418 80.1932V79.566Z" fill="white"/>
<path d="M307.637 78.6861C307.637 78.0589 307.317 77.8707 306.87 77.8707C306.423 77.8707 306.04 78.1216 305.848 78.4352V80.9442H305.273V77.4944H305.848V77.9962C306.104 77.6825 306.551 77.4316 307.126 77.4316C307.892 77.4316 308.275 77.808 308.275 78.5607V81.0069H307.701V78.6861H307.637Z" fill="white"/>
<path d="M309.743 80.2548C309.934 80.2548 310.126 80.443 310.126 80.6311C310.126 80.8193 309.934 81.0075 309.743 81.0075C309.551 81.0075 309.359 80.8193 309.359 80.6311C309.359 80.3802 309.551 80.2548 309.743 80.2548ZM309.423 76.1777H310.126L309.998 79.6276H309.551L309.423 76.1777Z" fill="white"/>
<path d="M312.869 77.4316C313.508 77.4316 313.891 77.6825 314.147 78.0589L313.763 78.3725C313.508 78.0589 313.252 77.9334 312.869 77.9334C312.103 77.9334 311.656 78.4979 311.656 79.2506C311.656 80.0033 312.103 80.5678 312.869 80.5678C313.252 80.5678 313.508 80.4424 313.763 80.1288L314.147 80.4424C313.891 80.756 313.508 81.0696 312.869 81.0696C311.847 81.0696 311.145 80.2542 311.145 79.2506C311.081 78.1843 311.783 77.4316 312.869 77.4316Z" fill="white"/>
<path d="M316.64 77.4316C317.726 77.4316 318.301 78.2471 318.301 79.3134V79.4388H315.426C315.49 80.0661 315.937 80.6306 316.704 80.6306C317.087 80.6306 317.534 80.5051 317.79 80.1915L318.045 80.5678C317.726 80.8815 317.215 81.0696 316.64 81.0696C315.618 81.0696 314.852 80.3169 314.852 79.2506C314.915 78.1843 315.618 77.4316 316.64 77.4316ZM315.49 78.9997H317.79C317.79 78.4979 317.406 77.8707 316.64 77.8707C315.874 77.8707 315.49 78.4979 315.49 78.9997Z" fill="white"/>
<path d="M319.383 77.4944H319.958V78.0589C320.213 77.6825 320.66 77.4316 321.107 77.4316V77.9962C321.043 77.9962 320.98 77.9962 320.916 77.9962C320.596 77.9962 320.149 78.2471 319.958 78.5607V81.0069H319.383V77.4944Z" fill="white"/>
</svg>
