<svg width="122" height="39" viewBox="0 0 122 39" fill="none" xmlns="http://www.w3.org/2000/svg">
<g clip-path="url(#clip0_40000001_9886)">
<path d="M8.60685 38.1469C8.29611 38.1469 7.99283 38.1431 7.6848 38.1366C7.04655 38.1285 6.40981 38.0753 5.77978 37.9773C5.19096 37.8809 4.62052 37.7008 4.08733 37.4432C3.561 37.1877 3.081 36.8531 2.66567 36.452C2.24368 36.0561 1.89221 35.5968 1.62515 35.0925C1.35503 34.5832 1.16827 34.0374 1.07138 33.4739C0.967821 32.8696 0.912375 32.2586 0.905519 31.6463C0.898749 31.4404 0.890625 30.7561 0.890625 30.7561V8.23335C0.890625 8.23335 0.896041 7.55939 0.905519 7.36128C0.913238 6.74973 0.96959 6.13962 1.07409 5.53623C1.1715 4.97293 1.35824 4.42713 1.62786 3.91771C1.89276 3.41252 2.2414 2.95165 2.66025 2.55297C3.07857 2.15138 3.5601 1.81497 4.08733 1.55596C4.61827 1.29944 5.18651 1.12071 5.77301 1.02573C6.40608 0.926515 7.04604 0.872845 7.68751 0.865169L8.60752 0.853516H113.382L114.313 0.865816C114.948 0.873018 115.581 0.926041 116.208 1.02443C116.8 1.12066 117.375 1.30067 117.911 1.55855C118.969 2.07994 119.83 2.90487 120.374 3.91771C120.639 4.42418 120.823 4.96614 120.919 5.52523C121.025 6.1336 121.084 6.74854 121.097 7.36517C121.097 7.64097 121.097 7.93813 121.097 8.23335C121.105 8.59913 121.105 8.9455 121.105 9.29769V29.7034C121.105 30.0575 121.105 30.4033 121.097 30.7516C121.097 31.0688 121.097 31.3588 121.093 31.6579C121.081 32.2635 121.023 32.8674 120.919 33.4649C120.823 34.0314 120.638 34.5806 120.368 35.0931C120.1 35.5927 119.75 36.0487 119.333 36.4443C118.917 36.8477 118.435 37.1843 117.907 37.4413C117.371 37.7006 116.798 37.8813 116.206 37.9773C115.576 38.0758 114.939 38.1291 114.3 38.1366C114.002 38.1431 113.691 38.1469 113.386 38.1469H112.281H8.60685Z" fill="black"/>
<path d="M25.2501 19.7909C25.2609 18.9776 25.4865 18.1802 25.906 17.4726C26.3255 16.7651 26.9251 16.1704 27.6493 15.7439C27.189 15.1153 26.5819 14.598 25.8761 14.2329C25.1704 13.8678 24.3854 13.6649 23.5833 13.6405C21.8713 13.4689 20.2113 14.62 19.3394 14.62C18.4498 14.62 17.1053 13.6573 15.6606 13.6858C14.725 13.7144 13.8131 13.9745 13.0139 14.4406C12.2147 14.9067 11.5554 15.563 11.1005 16.3454C9.12846 19.6103 10.5995 24.4082 12.4883 27.0471C13.4361 28.3419 14.5375 29.7824 15.9829 29.7312C17.3971 29.6749 17.9251 28.8689 19.6318 28.8689C21.3243 28.8689 21.8185 29.7312 23.2929 29.6988C24.81 29.6755 25.7666 28.404 26.6778 27.0963C27.3568 26.1756 27.8794 25.158 28.2261 24.0813C27.3442 23.7247 26.5917 23.1276 26.0625 22.3646C25.5332 21.6016 25.2507 20.7065 25.2501 19.7909Z" fill="white"/>
<path d="M22.4665 11.9054C23.2938 10.9555 23.7013 9.73457 23.6025 8.50195C22.3383 8.62897 21.1706 9.20687 20.332 10.1205C19.9221 10.5667 19.6081 11.0858 19.4081 11.6481C19.2081 12.2104 19.1259 12.805 19.1662 13.3977C19.7986 13.4039 20.4241 13.2729 20.9958 13.0144C21.5675 12.7559 22.0703 12.3767 22.4665 11.9054Z" fill="white"/>
<path d="M43.1227 26.4609H38.2965L37.1376 29.7335H35.0938L39.6647 17.627H41.7884L46.3594 29.7335H44.2824L43.1227 26.4609ZM38.7989 24.9505H42.6238L40.7384 19.6417H40.6856L38.7989 24.9505Z" fill="white"/>
<path d="M56.2349 25.3201C56.2349 28.0632 54.6995 29.8254 52.3829 29.8254C51.796 29.8548 51.2123 29.7256 50.6987 29.4525C50.1851 29.1795 49.7622 28.7736 49.4786 28.2813H49.4346V32.6533H47.5391V20.9061H49.3737V22.3744H49.4082C49.7049 21.8846 50.1348 21.4809 50.6523 21.2061C51.1697 20.9314 51.7554 20.7959 52.347 20.8141C54.6907 20.8141 56.2349 22.5848 56.2349 25.3201ZM54.2872 25.3201C54.2872 23.5332 53.3212 22.3582 51.8501 22.3582C50.4027 22.3582 49.4285 23.5578 49.4285 25.3201C49.4285 27.0985 50.402 28.2898 51.8501 28.2898C53.3218 28.2924 54.2886 27.1238 54.2886 25.3201H54.2872Z" fill="white"/>
<path d="M66.3877 25.3201C66.3877 28.0632 64.8524 29.8254 62.5357 29.8254C61.9489 29.8548 61.3652 29.7256 60.8516 29.4525C60.3379 29.1795 59.9151 28.7736 59.6315 28.2813H59.5875V32.6533H57.6953V20.9061H59.5293V22.3744H59.5638C59.8604 21.8846 60.2904 21.4809 60.8079 21.2061C61.3253 20.9314 61.911 20.7959 62.5026 20.8141C64.8436 20.8141 66.3877 22.5848 66.3877 25.3201ZM64.4401 25.3201C64.4401 23.5332 63.474 22.3582 62.0029 22.3582C60.5556 22.3582 59.5814 23.5578 59.5814 25.3201C59.5814 27.0985 60.5549 28.2898 62.0029 28.2898C63.4767 28.2898 64.4401 27.1244 64.4401 25.3201Z" fill="white"/>
<path d="M73.1029 26.36C73.2431 27.561 74.463 28.3489 76.1297 28.3489C77.7267 28.3489 78.8755 27.5603 78.8755 26.4779C78.8755 25.5378 78.1823 24.9752 76.542 24.59L74.901 24.2119C72.5796 23.6746 71.4965 22.6348 71.4965 20.9477C71.4965 18.8585 73.4001 17.4238 76.0999 17.4238C78.7754 17.4238 80.6093 18.8585 80.6709 20.9477H78.7618C78.6474 19.7396 77.6028 19.01 76.0769 19.01C74.551 19.01 73.5044 19.748 73.5044 20.8227C73.5044 21.6786 74.1712 22.1823 75.8061 22.5707L77.2007 22.8983C79.7983 23.4855 80.8774 24.4838 80.8774 26.2545C80.8774 28.5204 78.9906 29.9383 75.9896 29.9383C73.1821 29.9383 71.2866 28.5528 71.1641 26.3633L73.1029 26.36Z" fill="white"/>
<path d="M84.9642 18.8164V20.9056H86.7196V22.3403H84.9642V27.2068C84.9642 27.963 85.3155 28.3152 86.0873 28.3152C86.2958 28.3117 86.5039 28.2976 86.7108 28.2731V29.6974C86.3638 29.7593 86.0111 29.7873 85.6581 29.7809C83.7896 29.7809 83.0605 29.1096 83.0605 27.3978V22.3403H81.7188V20.905H83.0605V18.8164H84.9642Z" fill="white"/>
<path d="M87.7422 25.3197C87.7422 22.5423 89.4529 20.7969 92.1202 20.7969C94.7875 20.7969 96.4989 22.5423 96.4989 25.3197C96.4989 28.0971 94.8065 29.8405 92.1202 29.8405C89.434 29.8405 87.7422 28.1048 87.7422 25.3197ZM94.5682 25.3197C94.5682 23.4144 93.6549 22.2898 92.1202 22.2898C90.5855 22.2898 89.6729 23.4228 89.6729 25.3197C89.6729 27.2328 90.5848 28.3483 92.1202 28.3483C93.6556 28.3483 94.5682 27.2321 94.5682 25.3197Z" fill="white"/>
<path d="M98.056 20.906H99.8629V22.4086H99.9069C100.029 21.9394 100.317 21.5247 100.721 21.2343C101.125 20.9439 101.622 20.7955 102.127 20.814C102.346 20.8124 102.563 20.8341 102.777 20.8788V22.5737C102.501 22.4935 102.213 22.457 101.924 22.4656C101.649 22.4549 101.375 22.5014 101.12 22.6017C100.865 22.702 100.636 22.8538 100.449 23.0468C100.261 23.2397 100.12 23.4692 100.034 23.7194C99.9475 23.9697 99.919 24.2348 99.9502 24.4965V29.7321H98.0547L98.056 20.906Z" fill="white"/>
<path d="M111.514 27.1415C111.259 28.7438 109.627 29.8438 107.539 29.8438C104.854 29.8438 103.188 28.123 103.188 25.3631C103.188 22.6032 104.863 20.7988 107.46 20.7988C110.013 20.7988 111.62 22.4763 111.62 25.1527V25.7735H105.101V25.8829C105.071 26.2078 105.113 26.5351 105.225 26.843C105.338 27.151 105.517 27.4326 105.752 27.669C105.987 27.9055 106.272 28.0915 106.588 28.2147C106.903 28.3378 107.243 28.3953 107.584 28.3832C108.032 28.4234 108.481 28.3242 108.865 28.1005C109.249 27.8767 109.547 27.5404 109.716 27.1415H111.514ZM105.109 24.5072H109.724C109.741 24.2151 109.695 23.9228 109.588 23.6486C109.481 23.3744 109.316 23.1242 109.104 22.9138C108.891 22.7034 108.635 22.5373 108.353 22.4259C108.07 22.3145 107.766 22.2603 107.46 22.2665C107.151 22.2648 106.846 22.3215 106.56 22.4334C106.275 22.5454 106.015 22.7102 105.797 22.9185C105.578 23.1269 105.405 23.3745 105.287 23.6472C105.169 23.9198 105.108 24.2121 105.109 24.5072Z" fill="white"/>
<path d="M40.1583 14.3293H36.3672V8.51172H37.315V13.4968H40.1644L40.1583 14.3293Z" fill="white"/>
<path d="M41.1094 13.0867C41.1094 12.2962 41.7248 11.8411 42.8167 11.7763L44.0603 11.7077V11.329C44.0603 10.8654 43.7394 10.6032 43.1207 10.6032C42.615 10.6032 42.2643 10.7806 42.1641 11.0914H41.284C41.3768 10.3371 42.1181 9.85352 43.16 9.85352C44.3108 9.85352 44.96 10.4012 44.96 11.329V14.3297H44.0901V13.7127H44.0184C43.8729 13.9341 43.6685 14.1145 43.4263 14.2356C43.184 14.3568 42.9124 14.4143 42.6394 14.4022C42.4466 14.4213 42.2519 14.4016 42.0676 14.3443C41.8834 14.287 41.7137 14.1934 41.5696 14.0696C41.4254 13.9458 41.31 13.7945 41.2307 13.6254C41.1515 13.4563 41.1101 13.2733 41.1094 13.088V13.0867ZM44.0603 12.7118V12.3448L42.9393 12.4134C42.307 12.4542 42.0206 12.6594 42.0206 13.0465C42.0206 13.4337 42.3787 13.6719 42.8716 13.6719C43.0159 13.6858 43.1617 13.6718 43.3003 13.6307C43.4389 13.5896 43.5675 13.5224 43.6783 13.4329C43.7892 13.3434 43.8802 13.2335 43.9458 13.1098C44.0114 12.986 44.0504 12.8509 44.0603 12.7125V12.7118Z" fill="white"/>
<path d="M46.1562 12.1337C46.1562 10.7463 46.9009 9.86775 48.0619 9.86775C48.3489 9.85508 48.6337 9.9208 48.8831 10.0572C49.1325 10.1937 49.3361 10.3952 49.4701 10.6382H49.5378V8.22656H50.4436V14.331H49.5757V13.637H49.5039C49.3595 13.8783 49.1488 14.0772 48.8946 14.2122C48.6404 14.3472 48.3525 14.4131 48.0619 14.4029C46.8942 14.4029 46.1562 13.5243 46.1562 12.1337ZM47.0918 12.1337C47.0918 13.0647 47.5508 13.6227 48.3185 13.6227C49.0862 13.6227 49.554 13.0543 49.554 12.1337C49.554 11.2131 49.0801 10.6446 48.3185 10.6446C47.5569 10.6446 47.0918 11.2085 47.0918 12.1337Z" fill="white"/>
<path d="M55.817 13.145C55.6939 13.5462 55.4273 13.8933 55.0637 14.1255C54.7001 14.3577 54.2627 14.4603 53.8281 14.4153C53.5256 14.4229 53.225 14.3676 52.9471 14.253C52.6693 14.1385 52.4208 13.9675 52.219 13.7519C52.0172 13.5363 51.8669 13.2813 51.7785 13.0045C51.6901 12.7278 51.6657 12.436 51.7071 12.1493C51.6668 11.8618 51.6916 11.5693 51.7798 11.2918C51.868 11.0142 52.0175 10.758 52.2183 10.5405C52.419 10.323 52.6663 10.1493 52.9433 10.0311C53.2203 9.91295 53.5207 9.85307 53.824 9.85554C55.1015 9.85554 55.8719 10.6901 55.8719 12.069V12.3714H52.6278V12.4199C52.6135 12.5811 52.6346 12.7433 52.6898 12.8961C52.7449 13.049 52.8329 13.1892 52.948 13.3076C53.0631 13.4261 53.2029 13.5202 53.3583 13.5839C53.5137 13.6477 53.6813 13.6797 53.8504 13.6779C54.0671 13.7027 54.2866 13.6654 54.4811 13.5707C54.6755 13.4759 54.8361 13.328 54.9424 13.1457L55.817 13.145ZM52.6278 11.7279H54.9464C54.9579 11.5805 54.937 11.4325 54.8851 11.2933C54.8332 11.1541 54.7514 11.0269 54.6449 10.9198C54.5385 10.8126 54.4099 10.728 54.2672 10.6713C54.1245 10.6145 53.971 10.587 53.8166 10.5904C53.6598 10.5884 53.5043 10.6166 53.3591 10.6731C53.2139 10.7295 53.0821 10.8133 52.9713 10.9193C52.8605 11.0253 52.773 11.1515 52.714 11.2903C52.655 11.4292 52.6257 11.578 52.6278 11.7279Z" fill="white"/>
<path d="M57.0859 9.94072H57.9579V10.638H58.0256C58.1405 10.3875 58.3342 10.1775 58.5798 10.0373C58.8255 9.89709 59.1107 9.83369 59.3958 9.85591C59.6191 9.83992 59.8434 9.87218 60.0519 9.95029C60.2604 10.0284 60.4479 10.1504 60.6005 10.3072C60.7531 10.4639 60.8668 10.6515 60.9333 10.8561C60.9998 11.0606 61.0174 11.2768 60.9847 11.4887V14.3308H60.0789V11.7062C60.0789 11.0005 59.758 10.6496 59.0884 10.6496C58.9368 10.643 58.7855 10.6677 58.6448 10.7221C58.5041 10.7766 58.3774 10.8594 58.2733 10.9651C58.1693 11.0707 58.0903 11.1966 58.0418 11.3341C57.9933 11.4716 57.9765 11.6176 57.9924 11.7619V14.3302H57.0859V9.94072Z" fill="white"/>
<path d="M64.7589 8.64185C64.7518 8.52961 64.7802 8.41794 64.8403 8.3213C64.9004 8.22466 64.9894 8.1475 65.0959 8.09983C65.2024 8.05216 65.3214 8.03616 65.4375 8.05392C65.5535 8.07168 65.6614 8.12237 65.747 8.19942C65.8326 8.27648 65.8921 8.37635 65.9176 8.48609C65.9432 8.59584 65.9337 8.71039 65.8904 8.81493C65.8471 8.91946 65.772 9.00914 65.6748 9.07236C65.5775 9.13557 65.4627 9.16941 65.3451 9.16949C65.27 9.17315 65.1949 9.16226 65.1243 9.13747C65.0537 9.11267 64.9891 9.07448 64.9344 9.0252C64.8796 8.97591 64.8358 8.91654 64.8057 8.85067C64.7755 8.78479 64.7596 8.71376 64.7589 8.64185ZM64.8943 9.9399H65.796V14.33H64.8943V9.9399Z" fill="white"/>
<path d="M67.2578 9.94073H68.1304V10.6464H68.1981C68.3073 10.4111 68.4855 10.2112 68.7111 10.0709C68.9367 9.93061 69.2 9.85592 69.4692 9.85592C69.7383 9.85592 70.0016 9.93061 70.2273 10.0709C70.4529 10.2112 70.6311 10.4111 70.7402 10.6464H70.812C70.9398 10.3997 71.1398 10.1937 71.3875 10.0534C71.6353 9.91315 71.9202 9.84454 72.2079 9.85592C72.4091 9.84016 72.6114 9.86729 72.8002 9.93535C72.9891 10.0034 73.1598 10.1107 73.3001 10.2495C73.4404 10.3883 73.5467 10.5551 73.6114 10.7379C73.6761 10.9208 73.6975 11.115 73.6742 11.3068V14.3308H72.7678V11.5327C72.7678 10.9397 72.4719 10.6496 71.8775 10.6496C71.7495 10.6444 71.6217 10.6645 71.5021 10.7088C71.3826 10.753 71.274 10.8204 71.183 10.9068C71.092 10.9931 71.0207 11.0965 70.9735 11.2104C70.9263 11.3244 70.9043 11.4465 70.9088 11.569V14.3308H70.0192V11.4485C70.0249 11.3381 70.0054 11.2278 69.9623 11.1253C69.9191 11.0228 69.8532 10.9304 69.7691 10.8545C69.685 10.7786 69.5847 10.7211 69.4752 10.6859C69.3656 10.6506 69.2493 10.6385 69.1344 10.6503C69.0016 10.6525 68.8706 10.6802 68.7493 10.7319C68.628 10.7836 68.5188 10.8581 68.4283 10.9511C68.3378 11.044 68.2679 11.1535 68.2226 11.2729C68.1774 11.3923 68.1578 11.5192 68.165 11.646V14.3308H67.2578V9.94073Z" fill="white"/>
</g>
<defs>
<clipPath id="clip0_40000001_9886">
<rect width="122" height="39" fill="white"/>
</clipPath>
</defs>
</svg>
