<svg width="120" height="36" viewBox="0 0 120 36" fill="none" xmlns="http://www.w3.org/2000/svg">
<g clip-path="url(#clip0_40000001_9909)">
<path d="M2.9512 0.142578H116.868C117.65 0.142578 118.401 0.457395 118.954 1.01777C119.508 1.57815 119.819 2.33818 119.819 3.13068V33.0117C119.819 33.8041 119.508 34.5642 118.954 35.1246C118.401 35.6849 117.65 35.9997 116.868 35.9997H2.9512C2.16849 35.9997 1.41784 35.6849 0.864387 35.1246C0.310929 34.5642 0 33.8041 0 33.0117L0 3.13068C0 2.33818 0.310929 1.57815 0.864387 1.01777C1.41784 0.457395 2.16849 0.142578 2.9512 0.142578Z" fill="black"/>
<path d="M60.5709 19.5741C59.822 19.576 59.0905 19.8026 58.4689 20.2254C57.8473 20.6482 57.3635 21.2482 57.0786 21.9494C56.7937 22.6506 56.7206 23.4216 56.8685 24.1649C57.0164 24.9081 57.3786 25.5903 57.9094 26.1252C58.4402 26.66 59.1157 27.0235 59.8505 27.1696C60.5853 27.3158 61.3464 27.238 62.0376 26.9462C62.7288 26.6544 63.319 26.1616 63.7335 25.5302C64.1481 24.8988 64.3684 24.157 64.3667 23.3988C64.3737 22.9036 64.2843 22.4118 64.1036 21.9516C63.9229 21.4913 63.6544 21.0717 63.3135 20.7165C62.9726 20.3613 62.5659 20.0776 62.1167 19.8816C61.6675 19.6856 61.1845 19.5811 60.6954 19.5741H60.5709ZM60.5709 25.7212C60.1182 25.7538 59.6662 25.6497 59.272 25.4221C58.8778 25.1945 58.5592 24.8536 58.3565 24.4425C58.1538 24.0315 58.076 23.5687 58.1332 23.1129C58.1903 22.6571 58.3797 22.2288 58.6775 21.882C58.9752 21.5353 59.3678 21.2858 59.8057 21.1651C60.2435 21.0444 60.7069 21.0579 61.1371 21.204C61.5674 21.3501 61.9451 21.6222 62.2226 21.9857C62.5 22.3493 62.6647 22.7881 62.6957 23.2464C62.7004 23.2973 62.7004 23.3485 62.6957 23.3994C62.7104 23.6903 62.6682 23.9813 62.5715 24.2556C62.4748 24.5299 62.3255 24.7822 62.1323 24.998C61.939 25.2137 61.7055 25.3887 61.4453 25.5128C61.185 25.6369 60.9031 25.7077 60.6157 25.7212H60.5709ZM52.2863 19.5741C51.5374 19.576 50.8059 19.8026 50.1843 20.2254C49.5627 20.6482 49.0789 21.2482 48.794 21.9494C48.5091 22.6506 48.436 23.4216 48.5839 24.1649C48.7318 24.9081 49.094 25.5903 49.6248 26.1252C50.1556 26.66 50.8311 27.0235 51.5659 27.1696C52.3007 27.3158 53.0618 27.238 53.753 26.9462C54.4442 26.6544 55.0343 26.1616 55.4489 25.5302C55.8635 24.8988 56.0838 24.157 56.0821 23.3988C56.0964 22.4049 55.7225 21.4454 55.0417 20.7291C54.3609 20.0129 53.4283 19.5978 52.4468 19.5741H52.2863ZM52.2863 25.7212C51.8336 25.7538 51.3816 25.6497 50.9874 25.4221C50.5932 25.1945 50.2746 24.8536 50.0719 24.4425C49.8691 24.0315 49.7914 23.5687 49.8486 23.1129C49.9057 22.6571 50.0951 22.2288 50.3928 21.882C50.6906 21.5353 51.0832 21.2858 51.5211 21.1651C51.9589 21.0444 52.4223 21.0579 52.8525 21.204C53.2827 21.3501 53.6605 21.6222 53.9379 21.9857C54.2154 22.3493 54.3801 22.7881 54.4111 23.2464C54.4158 23.2973 54.4158 23.3485 54.4111 23.3994C54.4258 23.6903 54.3836 23.9813 54.2869 24.2556C54.1902 24.5299 54.0409 24.7822 53.8476 24.998C53.6544 25.2137 53.4209 25.3887 53.1606 25.5128C52.9004 25.6369 52.6185 25.7077 52.3311 25.7212H52.2863ZM42.4375 20.7508V22.3709H46.2776C46.2174 23.134 45.9042 23.8541 45.3887 24.4142C45.0026 24.8103 44.5391 25.1205 44.0279 25.325C43.5167 25.5296 42.969 25.624 42.4198 25.6023C41.2969 25.5889 40.2245 25.1279 39.4352 24.3192C38.6458 23.5105 38.2031 22.4193 38.2031 21.2824C38.2031 20.1454 38.6458 19.0542 39.4352 18.2455C40.2245 17.4369 41.2969 16.9758 42.4198 16.9625C43.5046 16.9469 44.5519 17.364 45.3356 18.1236L46.4647 16.9804C45.9352 16.4494 45.3062 16.031 44.6148 15.7497C43.9233 15.4684 43.1832 15.3299 42.4381 15.3423C40.881 15.2815 39.3637 15.8494 38.2202 16.9212C37.0766 17.9929 36.4004 19.4808 36.3403 21.0574C36.2802 22.6339 36.8411 24.1701 37.8997 25.328C38.9582 26.4858 40.4277 27.1705 41.9848 27.2314H42.4381C43.1624 27.2735 43.8874 27.1615 44.5663 26.9026C45.2452 26.6436 45.863 26.2434 46.3797 25.7279C46.8965 25.2123 47.3008 24.5928 47.5665 23.9093C47.8323 23.2258 47.9536 22.4935 47.9226 21.7596C47.9224 21.4217 47.8954 21.0843 47.8417 20.7508H42.4375ZM82.7131 22.0106C82.4592 21.2018 81.9256 20.5129 81.2104 20.0703C80.4952 19.6277 79.6463 19.4612 78.8196 19.6013C77.9929 19.7414 77.2439 20.1786 76.7099 20.8329C76.176 21.4871 75.893 22.3143 75.913 23.1628C75.9085 23.2408 75.9085 23.319 75.913 23.397C75.905 24.2187 76.1598 25.021 76.6393 25.684C77.1189 26.3469 77.7974 26.835 78.5736 27.0752C79.3497 27.3154 80.1818 27.2949 80.9455 27.0167C81.7092 26.7385 82.3634 26.2176 82.8105 25.5317L81.5214 24.6317C81.3287 24.9553 81.0561 25.2226 80.7304 25.4072C80.4047 25.5918 80.0372 25.6875 79.664 25.6847C79.2787 25.7018 78.8974 25.5999 78.5706 25.3925C78.2438 25.1851 77.987 24.8821 77.8342 24.5236L82.892 22.4086L82.7131 22.0106ZM77.5574 23.2883C77.5232 22.7338 77.7067 22.1882 78.068 21.7701C78.4292 21.352 78.939 21.0954 79.4863 21.0562H79.5394C79.8248 21.0377 80.1092 21.1046 80.3573 21.2486C80.6054 21.3926 80.8062 21.6073 80.9347 21.8659L77.5574 23.2883ZM73.4505 26.9935H75.1126V15.7487H73.4505V26.9935ZM70.7307 20.4287H70.6687C70.417 20.1497 70.1089 19.9288 69.7654 19.7813C69.4218 19.6337 69.0509 19.5628 68.6778 19.5735C67.7053 19.6195 66.7876 20.0431 66.1155 20.7562C65.4433 21.4694 65.0683 22.4172 65.0683 23.403C65.0683 24.3888 65.4433 25.3367 66.1155 26.0498C66.7876 26.7629 67.7053 27.1865 68.6778 27.2326C69.0547 27.2408 69.4288 27.1644 69.773 27.0088C70.1172 26.8531 70.4231 26.6222 70.6687 26.3325H70.7307V26.8818C70.7307 28.3489 69.9575 29.1318 68.7126 29.1318C68.2966 29.1238 67.8924 28.9901 67.5519 28.748C67.2114 28.5059 66.9501 28.1663 66.8014 27.7728L65.3613 28.3758C65.627 29.0534 66.0898 29.6334 66.6882 30.0389C67.2867 30.4444 67.9926 30.6564 68.7126 30.6468C70.6604 30.6468 72.2682 29.4856 72.2682 26.6594V19.7988H70.7307V20.4287ZM68.8195 25.7206C68.2362 25.6851 67.6883 25.4255 67.2877 24.9947C66.8871 24.564 66.664 23.9947 66.664 23.403C66.664 22.8114 66.8871 22.242 67.2877 21.8113C67.6883 21.3806 68.2362 21.1209 68.8195 21.0854C69.0982 21.097 69.3719 21.1642 69.6249 21.2832C69.8778 21.4022 70.105 21.5707 70.2934 21.779C70.4818 21.9873 70.6276 22.2313 70.7225 22.4969C70.8174 22.7624 70.8595 23.0444 70.8464 23.3265V23.3982C70.8931 23.9638 70.7162 24.5251 70.3545 24.9587C69.9929 25.3924 69.476 25.663 68.9175 25.711L68.8195 25.7206ZM90.4996 15.7487H86.5202V26.9989H88.1823V22.7331H90.5025C90.9554 22.7662 91.4103 22.7086 91.8413 22.5637C92.2722 22.4188 92.6707 22.1893 93.0141 21.8885C93.3574 21.5876 93.6389 21.2212 93.8424 20.8102C94.0459 20.3992 94.1674 19.9517 94.2001 19.4931C94.2328 19.0345 94.1759 18.5739 94.0328 18.1376C93.8897 17.7013 93.663 17.2978 93.3659 16.9502C93.0688 16.6025 92.7069 16.3175 92.301 16.1115C91.8951 15.9055 91.453 15.7824 91.0001 15.7493C90.8344 15.7403 90.6683 15.7403 90.5025 15.7493L90.4996 15.7487ZM90.4996 21.1488H88.1794V17.3151H90.5338C91.0384 17.3151 91.5222 17.518 91.879 17.8792C92.2357 18.2404 92.4362 18.7304 92.4362 19.2412C92.4362 19.752 92.2357 20.242 91.879 20.6032C91.5222 20.9644 91.0384 21.1673 90.5338 21.1673L90.4996 21.1488ZM100.757 19.5352C100.149 19.4938 99.5424 19.6347 99.0128 19.9404C98.4832 20.2461 98.0543 20.703 97.7796 21.254L99.2464 21.8749C99.4447 21.5763 99.7247 21.3427 100.052 21.2026C100.379 21.0625 100.74 21.0219 101.09 21.0859C101.439 21.1498 101.763 21.3155 102.021 21.5627C102.28 21.8099 102.461 22.1279 102.544 22.4779V22.613C102.01 22.3271 101.415 22.1787 100.81 22.1809C99.2281 22.1809 97.6102 23.0809 97.6102 24.719C97.6401 25.4059 97.9375 26.0528 98.4372 26.5184C98.9369 26.9839 99.5984 27.2302 100.277 27.2033H100.357C100.781 27.2332 101.205 27.1461 101.584 26.9512C101.963 26.7562 102.282 26.4608 102.508 26.0965H102.561V26.9965H104.161V22.6697C104.161 20.6976 102.686 19.5555 100.792 19.5555L100.757 19.5352ZM100.553 25.7003C100.011 25.7003 99.2546 25.4212 99.2546 24.7441C99.2546 23.8441 100.199 23.5381 101.032 23.5381C101.56 23.5276 102.081 23.6581 102.543 23.9164C102.488 24.4053 102.259 24.8573 101.9 25.1883C101.54 25.5194 101.074 25.707 100.588 25.7164L100.553 25.7003ZM109.993 19.7964L108.091 24.6742H108.037L106.064 19.7964H104.286L107.246 26.6182L105.558 30.4071H107.336L111.842 19.7988L109.993 19.7964ZM95.0598 26.9965H96.7125V15.7487H95.0598V26.9965Z" fill="white"/>
<path d="M9.27407 6.79517C8.98273 7.16276 8.8454 7.63138 8.89159 8.10037V27.9903C8.8648 28.448 9.01152 28.8988 9.30181 29.2507L9.37264 29.3224L20.3511 18.1356V17.8655L9.3449 6.73242L9.27407 6.79517Z" fill="#5BC9F4"/>
<path d="M24.0032 21.8427L20.3438 18.1375V17.8673L24.0032 14.1621H24.0924L28.4478 16.7092C29.6831 17.4203 29.6831 18.5905 28.4478 19.301L24.1006 21.7979L24.0032 21.8427Z" fill="url(#paint0_linear_40000001_9909)"/>
<path d="M24.1003 21.7979L20.3487 18L9.27344 29.2048C9.52632 29.432 9.85011 29.562 10.1881 29.5718C10.5261 29.5816 10.8567 29.4707 11.1221 29.2586L24.1003 21.7979Z" fill="url(#paint1_linear_40000001_9909)"/>
<path d="M24.1003 14.2009L11.1221 6.73962C10.8567 6.52744 10.5261 6.41655 10.1881 6.42638C9.85011 6.43622 9.52632 6.56615 9.27344 6.79341L20.3487 17.9988L24.1003 14.2009Z" fill="url(#paint2_linear_40000001_9909)"/>
<path d="M38.222 11.818C37.8658 11.8298 37.5168 11.7152 37.2351 11.4941C36.9533 11.2618 36.7486 10.9477 36.6484 10.5941L37.2794 10.3329C37.3016 10.5781 37.4131 10.8061 37.5923 10.9725C37.7715 11.1389 38.0054 11.2317 38.2486 11.2329C38.3873 11.2425 38.5263 11.219 38.6545 11.1643C38.7826 11.1096 38.8963 11.0253 38.9864 10.918C39.1678 10.6753 39.2591 10.3757 39.2443 10.0718V6.30078H39.929V9.98152C39.9459 10.2293 39.9121 10.478 39.8295 10.7118C39.7469 10.9457 39.6174 11.1598 39.4491 11.3405C39.2875 11.5004 39.0954 11.6253 38.8845 11.7075C38.6736 11.7897 38.4484 11.8275 38.2226 11.8186L38.222 11.818Z" fill="white" stroke="white" stroke-width="0.2" stroke-miterlimit="10"/>
<path d="M44.1903 6.96653H41.7786V8.67632H43.9743V9.32474H41.7786V11.0345H44.2139V11.7003H41.0703V6.30078H44.1903V6.96653Z" fill="white" stroke="white" stroke-width="0.2" stroke-miterlimit="10"/>
<path d="M47.1118 11.7009H46.4272V6.96653H44.8984V6.30078H48.5579V6.96653H47.1118V11.7009Z" fill="white" stroke="white" stroke-width="0.2" stroke-miterlimit="10"/>
<path d="M49.125 11.7009V10.9837L51.9582 6.96952H49.2407V6.30078H52.7963V7.01792L49.9631 11.0321H52.8252V11.6979L49.125 11.7009Z" fill="white" stroke="white" stroke-width="0.2" stroke-miterlimit="10"/>
<path d="M55.591 11.7009H54.9063V6.96653H53.4219V6.30078H57.0814V6.96653H55.5881L55.591 11.7009Z" fill="white" stroke="white" stroke-width="0.2" stroke-miterlimit="10"/>
<path d="M59.7344 11.7009V6.30083H61.6633C62.063 6.29773 62.4495 6.44536 62.7476 6.71498C62.897 6.84469 63.0161 7.00651 63.096 7.18866C63.176 7.37082 63.2148 7.56872 63.2097 7.76798C63.2176 8.01124 63.1492 8.25079 63.0143 8.45226C62.8808 8.64341 62.6998 8.79554 62.4896 8.8933C62.7458 8.98316 62.9711 9.14556 63.1389 9.36124C63.3 9.58297 63.3873 9.8509 63.388 10.1262C63.3919 10.3335 63.351 10.5393 63.2681 10.7289C63.1852 10.9186 63.0623 11.0875 62.9081 11.224C62.5986 11.5132 62.1912 11.671 61.7701 11.6651L59.7344 11.7009ZM60.4427 8.61362H61.6869C61.8035 8.62176 61.9203 8.60242 62.0283 8.5571C62.1362 8.51179 62.2323 8.44174 62.309 8.35246C62.3841 8.27871 62.444 8.19061 62.4852 8.09326C62.5265 7.9959 62.5482 7.89124 62.5492 7.78532C62.5463 7.67542 62.522 7.56718 62.4778 7.46679C62.4335 7.3664 62.3701 7.27583 62.2913 7.20025C62.2161 7.11693 62.1238 7.0512 62.021 7.00765C61.9181 6.9641 61.8072 6.94376 61.6957 6.94805H60.4427V8.61362ZM60.4427 11.0346H61.8291C61.9496 11.0393 62.0696 11.0167 62.1803 10.9684C62.291 10.9201 62.3896 10.8473 62.469 10.7555C62.5861 10.6262 62.663 10.4649 62.69 10.2916C62.717 10.1183 62.6929 9.94086 62.6207 9.78138C62.5486 9.6219 62.4316 9.48751 62.2844 9.39502C62.1372 9.30254 61.9663 9.25607 61.7931 9.26144H60.4427V11.0346Z" fill="white" stroke="white" stroke-width="0.2" stroke-miterlimit="10"/>
<path d="M67.4237 6.96653H64.9972V8.67632H67.1811V9.32474H64.9972V11.0345H67.4237V11.7003H64.3125V6.30078H67.4237V6.96653Z" fill="white" stroke="white" stroke-width="0.2" stroke-miterlimit="10"/>
<path d="M68.5 11.7009V6.30078H69.1847V11.7009H68.5Z" fill="white" stroke="white" stroke-width="0.2" stroke-miterlimit="10"/>
</g>
<defs>
<linearGradient id="paint0_linear_40000001_9909" x1="18.7544" y1="28.1485" x2="-2.72926" y2="28.1485" gradientUnits="userSpaceOnUse">
<stop stop-color="#FEE000"/>
<stop offset="0.42" stop-color="#FBBC0E"/>
<stop offset="0.78" stop-color="#FAA418"/>
<stop offset="1" stop-color="#F99B1C"/>
</linearGradient>
<linearGradient id="paint1_linear_40000001_9909" x1="13.1729" y1="26.0775" x2="-1.25036" y2="2.12472" gradientUnits="userSpaceOnUse">
<stop stop-color="#EF4547"/>
<stop offset="1" stop-color="#C6186D"/>
</linearGradient>
<linearGradient id="paint2_linear_40000001_9909" x1="-7.13987" y1="50.7619" x2="4.64064" y2="31.1983" gradientUnits="userSpaceOnUse">
<stop stop-color="#279E6F"/>
<stop offset="0.04" stop-color="#2BA06F"/>
<stop offset="0.46" stop-color="#53B26C"/>
<stop offset="0.8" stop-color="#6BBD6A"/>
<stop offset="1" stop-color="#74C169"/>
</linearGradient>
<clipPath id="clip0_40000001_9909">
<rect width="120" height="36" fill="white"/>
</clipPath>
</defs>
</svg>
