<svg width="52" height="65" viewBox="0 0 52 65" fill="none" xmlns="http://www.w3.org/2000/svg">
<path d="M3.4375 1.2436L3.48153 1.19922L9.81413 2.26807C11.0579 7.11302 11.722 9.82767 11.8064 10.4157L11.8504 11.0666H11.8798C11.8798 10.8078 13.0465 8.86977 15.3763 5.2601L16.5943 3.32582L22.971 4.39467V4.43905C17.0676 12.1614 13.9931 16.2223 13.7546 16.6291L11.9201 27.8095C8.50065 27.2621 6.72855 26.9625 6.6038 26.9144L8.39425 15.6897L3.4375 1.2436Z" fill="white"/>
<path d="M22.9662 1.08203H33.7163L33.8153 1.18189V6.38189L33.7163 6.47065H29.4713V11.482H33.4264L33.5145 11.5856V16.4823L33.4264 16.5822H29.4713V22.4183H34.1455L34.2446 22.5071V27.7071L34.1455 27.8069H22.9662L22.8672 27.7071V1.18189L22.9662 1.08203Z" fill="white"/>
<path d="M40.6639 1.08203H41.0235C43.2799 1.08203 44.8355 2.03623 45.6941 3.94092C45.9509 4.37364 46.2737 6.31902 46.6553 9.77705C46.5673 9.85472 44.8906 10.0803 41.6252 10.4576L40.9244 5.32783C40.7813 4.99128 40.5759 4.82115 40.308 4.82115C39.6696 4.82115 39.3468 5.10963 39.3468 5.68658C39.6036 8.27549 39.8384 9.57364 40.0475 9.57364C40.22 9.88061 41.0859 10.6869 42.6415 11.985C44.9052 13.9119 46.2444 15.1065 46.6553 15.5688C47.0846 16.02 47.4221 16.8743 47.6716 18.1244C48.0165 20.8391 48.1889 22.4294 48.1889 22.8917C48.1889 25.1441 46.8314 26.6826 44.1201 27.5C43.1735 27.7034 42.2966 27.8032 41.4821 27.8032C39.0753 27.8032 37.4829 26.764 36.7088 24.6817C36.441 24.1344 36.1144 21.9819 35.7329 18.2243C38.723 17.8211 40.4181 17.6177 40.8217 17.6177V17.6621C41.2216 21.6601 41.5225 23.6573 41.7242 23.6573C41.849 23.7645 41.9664 23.8163 42.0838 23.8163H42.4434C42.8543 23.7312 43.0597 23.5241 43.0597 23.195V22.9361C42.8286 20.1438 42.5901 18.7458 42.3443 18.7458C42.2306 18.4758 40.9244 17.2294 38.4332 15.0029C36.0998 13.1426 34.9367 11.7779 34.9367 10.9014C34.8009 10.9014 34.5992 9.38502 34.3203 6.3523V5.79014C34.3203 4.24789 35.1642 2.96823 36.8556 1.94747C38.0663 1.37051 39.3358 1.08203 40.6639 1.08203Z" fill="white"/>
<path d="M7.39793 30.1055L10.2083 30.1757L13.5031 30.1055L13.5471 30.2201C13.5471 30.8378 13.4223 31.1447 13.1765 31.1447H12.5895C12.1492 31.1447 11.9071 31.3999 11.8594 31.9103L13.6938 44.9695C13.7525 44.9325 15.3375 41.8184 18.4525 35.6383C19.4284 33.704 19.9127 32.6093 19.9127 32.3578C19.7513 31.6181 19.5458 31.2446 19.2963 31.2446C19.2303 31.1854 19.1055 31.1521 18.9221 31.1447H18.0782L17.9792 31.0301C18.0452 30.4124 18.1333 30.1055 18.236 30.1055L21.4463 30.1757L24.8841 30.1055L24.9282 30.2201C24.9282 30.8378 24.8034 31.1447 24.5539 31.1447H23.4936C22.9579 31.252 22.6901 31.522 22.6901 31.9547L24.4108 44.9695C25.7463 42.5507 27.6505 38.7154 30.1161 33.4562C30.5086 32.5612 30.7031 31.9843 30.7031 31.7217V31.6218C30.7031 31.3518 30.5086 31.1928 30.1161 31.1447H29.2428L29.0998 31.0301C29.1658 30.4124 29.2612 30.1055 29.3859 30.1055L32.2074 30.1757L34.6876 30.1055L34.7316 30.1498V30.1794C34.6729 30.8267 34.5775 31.1484 34.4454 31.1484H33.6713C33.1062 31.1484 32.4972 31.8622 31.8368 33.2861L23.611 48.4386C23.4092 48.7086 23.2294 48.8417 23.068 48.8417C22.7525 48.8417 22.558 48.287 22.481 47.1811L20.3897 34.2366C20.2062 34.5177 19.0615 36.6776 16.9519 40.7237C14.5267 45.3282 13.1362 47.9208 12.7803 48.5089C12.5711 48.7308 12.3877 48.8417 12.2373 48.8417C11.9988 48.8417 11.841 48.4608 11.764 47.6989C9.9772 37.1917 9.04895 31.8326 8.98291 31.6218C8.81047 31.3038 8.59033 31.1447 8.3225 31.1447H7.29153L7.14844 31.0301C7.21448 30.4161 7.30253 30.1055 7.39793 30.1055Z" fill="white"/>
<path d="M39.2069 28.6445H39.86C41.7275 28.6445 42.9566 29.6172 43.5436 31.5663C43.8298 32.539 43.9692 33.863 43.9692 35.531C44.0573 36.5666 44.171 39.0112 44.3141 42.8576C44.3141 42.9131 42.5861 43.0167 39.1226 43.1683C39.1629 45.5242 39.2913 46.7003 39.5151 46.7003C39.5151 46.7965 39.6913 46.8852 40.0398 46.9629C40.5865 46.9629 40.858 46.5819 40.858 45.8238L40.8103 44.6033C40.935 44.5145 41.0524 44.4701 41.1552 44.4701L44.3141 44.337C44.4315 44.337 44.4939 45.1063 44.4939 46.6485C44.4939 48.5569 43.6134 49.8514 41.8559 50.5282C41.1919 50.7057 40.5975 50.7908 40.0728 50.7908H39.4308C37.3725 50.7908 36.0737 49.7293 35.5343 47.6064C35.4316 47.6064 35.1858 42.9575 34.7969 33.6559C34.8005 30.3162 36.2681 28.6445 39.2069 28.6445ZM38.6493 33.6966L38.9575 39.7657L39.0895 39.7176L40.5498 39.6696C40.414 35.0798 40.2453 32.7831 40.0398 32.7831C39.8894 32.576 39.6986 32.4724 39.4711 32.4724H39.4344C38.9098 32.4761 38.6493 32.8829 38.6493 33.6966Z" fill="white"/>
<path d="M9.4608 51.5547H9.58188C10.4147 51.5547 11.1962 51.8099 11.93 52.3203H11.9777C12.1245 51.9726 12.2162 51.7988 12.2455 51.7988H12.8362L12.8546 51.8247H12.8803L12.9536 56.089L12.8803 56.137H12.2969C12.2712 56.137 12.1978 55.8412 12.0768 55.2494C11.5631 53.3262 10.7486 52.3683 9.63324 52.3683H9.53418C8.49587 52.3683 7.68136 53.0341 7.09066 54.3655C6.71643 55.3271 6.52564 56.4773 6.52564 57.8161C6.52564 59.9982 7.16037 61.5922 8.4335 62.5945C8.86643 62.8756 9.33239 63.0161 9.8277 63.0161C11.1375 63.0161 12.0914 62.147 12.6858 60.405H12.7335C13.1261 60.5678 13.3242 60.6824 13.3242 60.749C12.5941 62.9681 11.2476 64.0776 9.28836 64.0776C7.82078 64.0776 6.59535 63.3046 5.61574 61.7624C4.99936 60.638 4.6875 59.3473 4.6875 57.8901C4.6875 55.4565 5.48733 53.5999 7.08332 52.3203C7.86481 51.8099 8.65363 51.5547 9.4608 51.5547Z" fill="white"/>
<path d="M17.8137 53.7656C18.6502 53.7656 19.4354 53.9284 20.1655 54.2612C20.6535 54.583 20.8956 55.0083 20.8956 55.5409V55.6407C20.8956 56.0291 20.5691 57.2385 19.916 59.2763C19.8353 59.5907 19.7949 59.7978 19.7949 59.8976V60.0604C19.7949 60.323 20.0811 60.4746 20.6535 60.5153C20.7599 60.5153 20.8149 60.5338 20.8149 60.5744C20.7342 60.9036 20.6645 61.07 20.6058 61.07C20.1141 61.1921 19.7252 61.2513 19.4427 61.2513H19.2409C18.298 61.2513 17.7183 60.985 17.5092 60.4524L17.4468 60.101H17.4248C16.6947 60.6188 15.9866 60.8777 15.3041 60.8777C14.2108 60.8777 13.5394 60.5227 13.2825 59.8089L13.2422 59.4834V59.3429C13.2422 58.8843 13.4587 58.3961 13.8916 57.882C14.2181 57.575 14.7024 57.3346 15.3408 57.1645L18.276 56.5616C18.364 56.5616 18.4337 56.4137 18.4851 56.1141C18.6209 55.6703 18.6869 55.3375 18.6869 55.1045C18.6869 54.7198 18.4961 54.472 18.1182 54.3611L17.8981 54.3389H17.711C17.5679 54.3389 17.3587 54.3944 17.0799 54.509V55.1673C17.0799 55.674 16.8084 56.0217 16.2691 56.2177L15.9609 56.2584H15.8618C15.3261 56.2584 14.9629 56.1289 14.7795 55.8663C14.7024 55.7628 14.6547 55.6185 14.6401 55.4336C14.6401 54.657 15.3738 54.1318 16.8414 53.8581C17.1643 53.7952 17.4872 53.7656 17.8137 53.7656ZM15.7407 59.2541C15.7407 59.6276 15.9719 59.8422 16.4305 59.8976H16.5332C16.8965 59.8976 17.2413 59.746 17.5752 59.4427L18.2063 57.1608C17.3698 57.3642 16.7974 57.5676 16.4929 57.7784C15.9902 58.1964 15.7407 58.6882 15.7407 59.2541Z" fill="white"/>
<path d="M23.205 51.9414C23.2527 51.9858 23.5682 52.7809 24.1442 54.3306L26.2722 59.7969H26.2943L27.3876 51.9599L27.4023 51.9414H28.3635L28.3819 51.9599H28.4039L26.995 61.9642H25.9347C25.8833 61.9161 25.5641 61.1098 24.9734 59.5528L22.8858 54.1198C22.8491 54.1198 22.7721 54.6191 22.6583 55.6213L21.7594 61.9642H20.7982L20.7578 61.9235L22.1557 51.9599L22.1704 51.9414H23.205Z" fill="white"/>
<path d="M31.63 52.043H31.7291C32.8958 52.043 33.7947 52.4979 34.4221 53.4114C34.7193 54.1511 34.8661 54.7909 34.8661 55.3346L34.9138 55.6933C34.9138 55.734 33.9818 55.8117 32.1144 55.93L32.0556 55.8413C32.0006 54.5764 31.9162 53.9477 31.8025 53.9477C31.7621 53.8885 31.6851 53.8589 31.5677 53.8589C31.3439 53.8589 31.2301 54.0216 31.2301 54.3508C31.4429 58.0788 31.586 59.9428 31.6521 59.9428C31.7548 60.1721 31.8832 60.2868 32.0336 60.2868C32.3161 60.2868 32.4556 60.0427 32.4556 59.5545V59.5138L32.3492 57.868C32.3492 57.8125 33.0059 57.757 34.3157 57.6979L34.9541 57.6313C35.0385 57.6313 35.0825 57.8754 35.0825 58.3636L35.1045 58.9997C35.1045 60.2498 34.5836 61.1596 33.5416 61.7329C33.0132 61.9918 32.3565 62.1175 31.5677 62.1175C30.1551 62.1175 29.2342 61.5405 28.816 60.3866C28.6032 60.0982 28.4197 58.3969 28.2656 55.2828V55.0313C28.2656 54.0253 28.5408 53.3263 29.0911 52.9343C29.7295 52.3388 30.5771 52.043 31.63 52.043Z" fill="white"/>
<path d="M35.4581 52.3125H40.0736L40.1177 52.3569V54.5907L40.0736 54.6277H38.2502V56.7802H39.9489L39.9856 56.8209V58.9253L39.9489 58.9697H38.2502V61.4735H40.2571L40.3011 61.5142V63.7444L40.2571 63.7887H35.4581L35.4141 63.7444V52.3569L35.4581 52.3125Z" fill="white"/>
<path d="M40.4425 51.2734H42.9484C44.9369 51.2734 46.1 51.4177 46.4449 51.7062C47.23 52.1833 47.6189 53.1485 47.6189 54.5946V54.7759C47.6189 56.0074 47.3841 56.736 46.9218 56.9616C46.5549 57.1429 46.2284 57.2316 45.9496 57.2316V57.2797C46.5329 57.4128 46.9438 57.6347 47.1933 57.9417C47.4795 58.2746 47.6226 58.7887 47.6226 59.484V63.7409L47.5822 63.7889H44.6434L44.6031 63.7409V59.484C44.6031 58.6481 44.482 58.2339 44.2398 58.2339C44.2215 58.1895 44.0564 58.1599 43.7445 58.1451H43.6491V63.7409L43.6088 63.7889H40.4461L40.3984 63.7409V51.3141L40.4425 51.2734ZM43.6455 53.4407V56.1961H43.6711C44.2251 56.1961 44.504 56.0814 44.504 55.8521C44.548 55.8373 44.581 55.6191 44.5994 55.1938V54.2988C44.5994 53.7255 44.3572 53.4407 43.8729 53.4407H43.6455Z" fill="white"/>
<path d="M48.2655 1.98755C48.2655 2.50903 47.8582 2.91955 47.3299 2.91955C46.8089 2.91955 46.3906 2.50903 46.3906 1.98755C46.3906 1.47717 46.8089 1.07034 47.3299 1.07034C47.8619 1.06664 48.2655 1.47717 48.2655 1.98755ZM46.6254 1.98755C46.6254 2.39808 46.9263 2.72354 47.3372 2.72354C47.7371 2.72354 48.0306 2.39808 48.0306 1.99495C48.0306 1.58442 47.7371 1.25526 47.3299 1.25526C46.9263 1.25156 46.6254 1.58442 46.6254 1.98755ZM47.1868 2.46835H46.9777V1.54744C47.062 1.52894 47.1794 1.51785 47.3262 1.51785C47.4986 1.51785 47.5757 1.54744 47.6417 1.58442C47.6931 1.6251 47.7298 1.69537 47.7298 1.78783C47.7298 1.88769 47.6527 1.96906 47.539 2.00234V2.01344C47.6271 2.04672 47.6784 2.1133 47.7078 2.23904C47.7371 2.37958 47.7518 2.43506 47.7738 2.46835H47.5463C47.517 2.43506 47.5023 2.35 47.473 2.24274C47.4583 2.14288 47.3996 2.0985 47.2822 2.0985H47.1831V2.46835H47.1868ZM47.1941 1.94687H47.2932C47.4106 1.94687 47.506 1.90988 47.506 1.81372C47.506 1.72866 47.4436 1.67318 47.3115 1.67318C47.2565 1.67318 47.2161 1.67688 47.1941 1.68428V1.94687Z" fill="white"/>
<path d="M47.4425 52.2804C47.4829 52.0178 47.4902 51.8551 47.4682 51.7848L47.2151 50.9786C47.182 50.949 47.072 50.9083 46.8849 50.8565L40.6146 53.1532C40.5412 53.1791 39.3929 53.6895 37.1768 54.677C36.0248 53.8596 35.1699 53.2568 34.6159 52.8685C34.1793 52.5652 32.9612 51.6665 30.9616 50.1797C30.7195 50.2795 30.5764 50.3572 30.5287 50.4164L29.9747 51.0525C29.9673 51.0969 29.9893 51.2116 30.0444 51.4002L35.1736 55.5757C34.5205 55.8679 33.8087 56.186 33.0382 56.5299L29.2922 58.6676C29.2079 58.6935 29.1969 58.8007 29.2556 58.9894C29.6628 59.2815 29.894 59.4369 29.9417 59.4517C30.004 59.5626 30.2755 59.6921 30.7562 59.8474C30.9176 59.7956 31.4129 59.5626 32.2384 59.1447C33.152 58.6824 34.0435 58.2571 34.9094 57.8724C35.5368 57.5655 36.2302 57.2326 36.9897 56.8776C38.1197 57.6764 39.7964 58.8599 42.0198 60.4281L45.7695 62.5547C45.8355 62.6138 45.9309 62.5694 46.063 62.4215C46.0997 61.9185 46.1144 61.6411 46.1034 61.5894C46.1621 61.4784 46.1364 61.1751 46.019 60.6796C45.8906 60.5649 45.4356 60.2616 44.6541 59.7623C43.7883 59.2113 42.9701 58.6639 42.1959 58.1165C41.2897 57.5211 40.2477 56.8221 39.0737 56.0232C39.0443 56.001 39.015 55.9825 38.9856 55.9603C41.0219 55.0616 42.4528 54.4255 43.2783 54.0483C43.7516 53.8226 45.1458 53.2346 47.4425 52.2804Z" fill="white"/>
</svg>
