<svg width="264" height="264" viewBox="0 0 264 264" fill="none" xmlns="http://www.w3.org/2000/svg">
<circle cx="132" cy="132" r="132" fill="#E6217F"/>
<path d="M74.5859 54.0787L74.696 53.9688L90.5275 56.6162C93.637 68.6168 95.2971 75.3408 95.5081 76.7973L95.6182 78.4096H95.6916C95.6916 77.7684 98.6084 72.9681 104.433 64.0272L107.478 59.2362L123.42 61.8836V61.9936C108.661 81.1212 100.975 91.1797 100.379 92.1874L95.7925 119.88C87.2438 118.524 82.8136 117.782 82.5017 117.663L86.9778 89.8605L74.5859 54.0787Z" fill="white"/>
<path d="M123.42 53.6836H150.295L150.542 53.9309V66.8109L150.295 67.0308H139.682V79.4436H149.57L149.79 79.7001V91.8289L149.57 92.0763H139.682V106.532H151.368L151.615 106.752V119.632L151.368 119.879H123.42L123.172 119.632V53.9309L123.42 53.6836Z" fill="white"/>
<path d="M167.664 53.6836H168.563C174.204 53.6836 178.093 56.0471 180.239 60.7648C180.881 61.8367 181.688 66.6552 182.642 75.2205C182.422 75.4129 178.23 75.9717 170.067 76.9061L168.315 64.2001C167.957 63.3665 167.444 62.9451 166.774 62.9451C165.178 62.9451 164.371 63.6596 164.371 65.0887C165.013 71.5012 165.6 74.7167 166.123 74.7167C166.554 75.477 168.719 77.474 172.608 80.6895C178.267 85.4622 181.615 88.4211 182.642 89.5662C183.715 90.6838 184.559 92.7999 185.183 95.8963C186.045 102.62 186.476 106.559 186.476 107.704C186.476 113.283 183.082 117.094 176.304 119.119C173.938 119.623 171.745 119.87 169.709 119.87C163.692 119.87 159.711 117.296 157.776 112.138C157.106 110.782 156.29 105.451 155.336 96.1436C162.812 95.1451 167.049 94.6413 168.058 94.6413V94.7512C169.058 104.654 169.81 109.601 170.315 109.601C170.626 109.866 170.92 109.995 171.213 109.995H172.112C173.14 109.784 173.653 109.271 173.653 108.456V107.814C173.075 100.898 172.479 97.4353 171.865 97.4353C171.58 96.7665 168.315 93.6794 162.087 88.1646C156.253 83.5568 153.346 80.1765 153.346 78.0054C153.006 78.0054 152.502 74.2495 151.805 66.7376V65.3452C151.805 61.5252 153.914 58.3556 158.143 55.8272C161.17 54.3981 164.343 53.6836 167.664 53.6836Z" fill="white"/>
<path d="M84.4909 125.568L91.5169 125.742L99.7537 125.568L99.8638 125.852C99.8638 127.382 99.5519 128.143 98.9374 128.143H97.4698C96.3691 128.143 95.7638 128.775 95.6445 130.039L100.231 162.385C100.377 162.294 104.34 154.58 112.127 139.273C114.567 134.482 115.778 131.77 115.778 131.147C115.374 129.315 114.861 128.39 114.237 128.39C114.072 128.243 113.76 128.161 113.301 128.143H111.192L110.944 127.859C111.109 126.329 111.329 125.568 111.586 125.568L119.612 125.742L128.206 125.568L128.317 125.852C128.317 127.382 128.005 128.143 127.381 128.143H124.73C123.391 128.408 122.721 129.077 122.721 130.149L127.023 162.385C130.362 156.394 135.122 146.895 141.286 133.868C142.268 131.651 142.754 130.222 142.754 129.572V129.324C142.754 128.656 142.268 128.262 141.286 128.143H139.103L138.745 127.859C138.911 126.329 139.149 125.568 139.461 125.568L146.514 125.742L152.715 125.568L152.825 125.678V125.752C152.678 127.355 152.44 128.152 152.11 128.152H150.174C148.762 128.152 147.239 129.92 145.588 133.447L125.024 170.978C124.519 171.647 124.07 171.977 123.666 171.977C122.877 171.977 122.391 170.603 122.199 167.863L116.97 135.801C116.512 136.497 113.65 141.847 108.376 151.869C102.313 163.274 98.8365 169.696 97.9468 171.152C97.424 171.702 96.9653 171.977 96.5893 171.977C95.9931 171.977 95.5987 171.033 95.406 169.146C90.9391 143.12 88.6185 129.846 88.4534 129.324C88.0223 128.536 87.4719 128.143 86.8023 128.143H84.2249L83.8672 127.859C84.0323 126.338 84.2524 125.568 84.4909 125.568Z" fill="white"/>
<path d="M164.01 121.949H165.642C170.311 121.949 173.384 124.358 174.851 129.186C175.567 131.595 175.915 134.875 175.915 139.007C176.135 141.572 176.42 147.627 176.778 157.154C176.778 157.291 172.457 157.548 163.799 157.923C163.899 163.759 164.221 166.672 164.78 166.672C164.78 166.91 165.22 167.13 166.092 167.322C167.458 167.322 168.137 166.379 168.137 164.501L168.018 161.478C168.33 161.258 168.623 161.148 168.88 161.148L176.778 160.818C177.071 160.818 177.227 162.724 177.227 166.544C177.227 171.271 175.026 174.477 170.632 176.153C168.972 176.593 167.486 176.804 166.174 176.804H164.569C159.423 176.804 156.176 174.175 154.828 168.916C154.571 168.916 153.957 157.401 152.984 134.362C152.994 126.09 156.662 121.949 164.01 121.949ZM162.615 134.463L163.386 149.496L163.716 149.376L167.367 149.257C167.027 137.889 166.605 132.2 166.092 132.2C165.716 131.687 165.239 131.431 164.67 131.431H164.578C163.267 131.44 162.615 132.447 162.615 134.463Z" fill="white"/>
<path d="M89.6442 178.701H89.9469C92.029 178.701 93.9827 179.333 95.8172 180.597H95.9364C96.3033 179.736 96.5326 179.306 96.606 179.306H98.0828L98.1286 179.37H98.1928L98.3763 189.932L98.1928 190.051H96.7344C96.6702 190.051 96.4868 189.318 96.1841 187.853C94.9 183.089 92.8637 180.717 90.0753 180.717H89.8276C87.2319 180.717 85.1956 182.365 83.7188 185.663C82.7833 188.045 82.3063 190.894 82.3063 194.21C82.3063 199.615 83.8931 203.563 87.0759 206.046C88.1583 206.742 89.3232 207.09 90.5614 207.09C93.836 207.09 96.2208 204.938 97.7067 200.623H97.8259C98.8074 201.026 99.3027 201.31 99.3027 201.475C97.4774 206.971 94.1111 209.719 89.2131 209.719C85.5441 209.719 82.4806 207.805 80.0315 203.985C78.4906 201.2 77.7109 198.003 77.7109 194.394C77.7109 188.366 79.7105 183.767 83.7005 180.597C85.6542 179.333 87.6263 178.701 89.6442 178.701Z" fill="white"/>
<path d="M110.53 184.17C112.622 184.17 114.585 184.573 116.41 185.397C117.63 186.194 118.235 187.248 118.235 188.567V188.814C118.235 189.776 117.419 192.772 115.786 197.819C115.584 198.598 115.483 199.111 115.483 199.358V199.762C115.483 200.412 116.199 200.788 117.63 200.888C117.896 200.888 118.033 200.934 118.033 201.035C117.832 201.85 117.657 202.262 117.511 202.262C116.281 202.565 115.309 202.711 114.603 202.711H114.098C111.741 202.711 110.292 202.052 109.769 200.733L109.613 199.862H109.558C107.733 201.145 105.962 201.786 104.256 201.786C101.523 201.786 99.8445 200.907 99.2025 199.139L99.1016 198.332V197.984C99.1016 196.848 99.6427 195.639 100.725 194.366C101.541 193.605 102.752 193.01 104.348 192.589L111.686 191.095C111.906 191.095 112.08 190.729 112.209 189.987C112.548 188.888 112.713 188.063 112.713 187.486C112.713 186.533 112.236 185.92 111.292 185.645L110.741 185.59H110.274C109.916 185.59 109.393 185.727 108.696 186.011V187.642C108.696 188.897 108.017 189.758 106.669 190.243L105.898 190.344H105.651C104.311 190.344 103.403 190.024 102.945 189.373C102.752 189.117 102.633 188.759 102.596 188.301C102.596 186.378 104.431 185.077 108.1 184.399C108.907 184.243 109.714 184.17 110.53 184.17ZM105.348 197.764C105.348 198.69 105.926 199.221 107.072 199.358H107.329C108.237 199.358 109.099 198.983 109.934 198.232L111.512 192.579C109.42 193.083 107.99 193.587 107.228 194.109C105.972 195.144 105.348 196.363 105.348 197.764Z" fill="white"/>
<path d="M124.016 179.654C124.136 179.764 124.924 181.734 126.365 185.572L131.685 199.112H131.74L134.473 179.7L134.51 179.654H136.913L136.959 179.7H137.014L133.491 204.48H130.841C130.712 204.361 129.914 202.364 128.437 198.507L123.218 185.05C123.127 185.05 122.934 186.287 122.65 188.769L120.402 204.48H117.999L117.898 204.379L121.393 179.7L121.43 179.654H124.016Z" fill="white"/>
<path d="M145.075 179.91H145.323C148.24 179.91 150.487 181.037 152.055 183.3C152.798 185.132 153.165 186.717 153.165 188.063L153.284 188.952C153.284 189.053 150.955 189.245 146.286 189.538L146.139 189.318C146.002 186.185 145.791 184.628 145.506 184.628C145.405 184.481 145.213 184.408 144.919 184.408C144.36 184.408 144.075 184.811 144.075 185.626C144.607 194.86 144.965 199.477 145.13 199.477C145.387 200.045 145.708 200.329 146.084 200.329C146.79 200.329 147.139 199.725 147.139 198.516V198.415L146.873 194.338C146.873 194.201 148.515 194.063 151.789 193.917L153.385 193.752C153.596 193.752 153.706 194.357 153.706 195.566L153.761 197.142C153.761 200.238 152.459 202.491 149.854 203.911C148.533 204.553 146.891 204.864 144.919 204.864C141.388 204.864 139.086 203.435 138.04 200.577C137.508 199.862 137.049 195.648 136.664 187.935V187.312C136.664 184.82 137.352 183.089 138.728 182.118C140.324 180.643 142.443 179.91 145.075 179.91Z" fill="white"/>
<path d="M154.649 180.578H166.188L166.298 180.688V186.221L166.188 186.313H161.629V191.644H165.876L165.968 191.745V196.958L165.876 197.067H161.629V203.269H166.647L166.757 203.37V208.894L166.647 209.004H154.649L154.539 208.894V180.688L154.649 180.578Z" fill="white"/>
<path d="M167.11 177.996H173.375C178.346 177.996 181.254 178.353 182.116 179.068C184.079 180.25 185.051 182.641 185.051 186.222V186.671C185.051 189.722 184.464 191.526 183.308 192.085C182.391 192.534 181.575 192.754 180.878 192.754V192.873C182.336 193.203 183.364 193.753 183.987 194.513C184.703 195.337 185.06 196.611 185.06 198.333V208.877L184.96 208.996H177.612L177.512 208.877V198.333C177.512 196.263 177.209 195.237 176.603 195.237C176.558 195.127 176.145 195.053 175.365 195.017H175.127V208.877L175.026 208.996H167.119L167 208.877V178.097L167.11 177.996ZM175.118 183.364V190.189H175.182C176.567 190.189 177.264 189.905 177.264 189.337C177.374 189.3 177.456 188.76 177.502 187.706V185.49C177.502 184.07 176.897 183.364 175.686 183.364H175.118Z" fill="white"/>
<path d="M186.656 55.9184C186.656 57.2101 185.638 58.2269 184.317 58.2269C183.014 58.2269 181.969 57.2101 181.969 55.9184C181.969 54.6542 183.014 53.6465 184.317 53.6465C185.647 53.6374 186.656 54.6542 186.656 55.9184ZM182.556 55.9184C182.556 56.9353 183.308 57.7414 184.335 57.7414C185.335 57.7414 186.069 56.9353 186.069 55.9367C186.069 54.9199 185.335 54.1046 184.317 54.1046C183.308 54.0954 182.556 54.9199 182.556 55.9184ZM183.959 57.1093H183.436V54.8283C183.647 54.7825 183.941 54.755 184.308 54.755C184.739 54.755 184.931 54.8283 185.097 54.9199C185.225 55.0207 185.317 55.1947 185.317 55.4237C185.317 55.6711 185.124 55.8726 184.84 55.9551V55.9825C185.06 56.065 185.188 56.2299 185.262 56.5413C185.335 56.8894 185.372 57.0269 185.427 57.1093H184.858C184.785 57.0269 184.748 56.8162 184.675 56.5505C184.638 56.3032 184.491 56.1932 184.198 56.1932H183.95V57.1093H183.959ZM183.977 55.8176H184.225C184.519 55.8176 184.757 55.726 184.757 55.4879C184.757 55.2772 184.601 55.1397 184.271 55.1397C184.133 55.1397 184.033 55.1489 183.977 55.1672V55.8176Z" fill="white"/>
<path d="M184.606 180.496C184.707 179.846 184.726 179.443 184.671 179.269L184.038 177.272C183.955 177.198 183.68 177.098 183.212 176.969L167.537 182.658C167.353 182.722 164.482 183.987 158.942 186.432C156.062 184.408 153.925 182.915 152.54 181.953C151.448 181.202 148.403 178.976 143.404 175.293C142.799 175.54 142.441 175.733 142.322 175.879L140.937 177.455C140.918 177.565 140.973 177.849 141.111 178.316L153.934 188.658C152.301 189.382 150.522 190.17 148.596 191.022L139.231 196.317C139.02 196.381 138.992 196.647 139.139 197.114C140.157 197.838 140.735 198.222 140.854 198.259C141.01 198.534 141.689 198.854 142.89 199.239C143.294 199.111 144.532 198.534 146.596 197.499C148.88 196.354 151.109 195.3 153.274 194.347C154.842 193.587 156.576 192.762 158.474 191.883C161.299 193.862 165.491 196.793 171.05 200.677L180.424 205.945C180.589 206.091 180.827 205.981 181.158 205.615C181.249 204.369 181.286 203.682 181.258 203.554C181.405 203.279 181.341 202.528 181.047 201.3C180.726 201.016 179.589 200.265 177.635 199.028C175.471 197.663 173.425 196.308 171.49 194.952C169.224 193.477 166.619 191.746 163.684 189.767C163.611 189.712 163.537 189.666 163.464 189.611C168.555 187.385 172.132 185.81 174.196 184.875C175.379 184.316 178.864 182.86 184.606 180.496Z" fill="#E6217F"/>
</svg>
